<svg xmlns="http://www.w3.org/2000/svg" width="48.962" height="30.695" viewBox="0 0 48.962 30.695">
  <path id="Icon_awesome-behance" data-name="Icon awesome-behance" d="M19.721,19.055a6.451,6.451,0,0,0,4.114-6.29c0-6-4.471-7.463-9.631-7.463H0V35.427H14.6c5.474,0,10.617-2.627,10.617-8.747,0-3.783-1.794-6.579-5.5-7.625Zm-13.1-8.611h6.214c2.389,0,4.539.672,4.539,3.443,0,2.559-1.675,3.587-4.038,3.587H6.622v-7.03ZM13.7,30.31H6.622v-8.3h7.217c2.916,0,4.76,1.216,4.76,4.3,0,3.043-2.2,4-4.9,4ZM44.176,9.849H31.961V6.883H44.176Zm4.786,14.986C48.962,18.384,45.188,13,38.345,13,31.7,13,27.184,18,27.184,24.546,27.184,31.338,31.46,36,38.345,36c5.211,0,8.585-2.346,10.209-7.336H43.267c-.57,1.862-2.916,2.848-4.735,2.848-3.511,0-5.355-2.057-5.355-5.551H48.911C48.937,25.6,48.962,25.218,48.962,24.835ZM33.185,22.183a4.682,4.682,0,0,1,4.973-4.658c3.009,0,4.522,1.768,4.777,4.658Z" transform="translate(0 -5.302)" fill="#fff"/>
</svg>
