<svg xmlns="http://www.w3.org/2000/svg" width="44" height="429" viewBox="0 0 44 429">
  <g id="list" transform="translate(-208 -374)">
    <circle id="Ellipse_1" data-name="Ellipse 1" cx="22" cy="22" r="22" transform="translate(208 374)" fill="#3b3b3b"/>
    <text id="_1" data-name="1" transform="translate(224 404)" fill="#fff" font-size="22" font-family="SegoeUIBlack, Segoe UI"><tspan x="0" y="0">1</tspan></text>
    <circle id="Ellipse_2" data-name="Ellipse 2" cx="22" cy="22" r="22" transform="translate(208 470)" fill="#3b3b3b"/>
    <text id="_2" data-name="2" transform="translate(223 500)" fill="#fff" font-size="22" font-family="SegoeUIBlack, Segoe UI"><tspan x="0" y="0">2</tspan></text>
    <circle id="Ellipse_3" data-name="Ellipse 3" cx="22" cy="22" r="22" transform="translate(208 565)" fill="#3b3b3b"/>
    <text id="_3" data-name="3" transform="translate(223 595)" fill="#fff" font-size="22" font-family="SegoeUIBlack, Segoe UI"><tspan x="0" y="0">3</tspan></text>
    <circle id="Ellipse_4" data-name="Ellipse 4" cx="22" cy="22" r="22" transform="translate(208 662)" fill="#3b3b3b"/>
    <text id="_4" data-name="4" transform="translate(223 691)" fill="#fff" font-size="21" font-family="SegoeUIBlack, Segoe UI"><tspan x="0" y="0">4</tspan></text>
    <circle id="Ellipse_5" data-name="Ellipse 5" cx="22" cy="22" r="22" transform="translate(208 759)" fill="#3b3b3b"/>
    <text id="_5" data-name="5" transform="translate(223 790)" fill="#fff" font-size="22" font-family="SegoeUIBlack, Segoe UI"><tspan x="0" y="0">5</tspan></text>
    <rect id="Rectangle_17" data-name="Rectangle 17" width="3" height="66" transform="translate(230 411)" fill="#3b3b3b"/>
    <rect id="Rectangle_18" data-name="Rectangle 18" width="3" height="60" transform="translate(230 509)" fill="#3b3b3b"/>
    <rect id="Rectangle_19" data-name="Rectangle 19" width="3" height="55" transform="translate(230 607)" fill="#3b3b3b"/>
    <rect id="Rectangle_20" data-name="Rectangle 20" width="3" height="55" transform="translate(230 706)" fill="#3b3b3b"/>
  </g>
</svg>
