<svg xmlns="http://www.w3.org/2000/svg" width="130.176" height="36.085" viewBox="0 0 130.176 36.085">
  <g id="logo_white" transform="translate(0.024)">
    <path id="Path_1" data-name="Path 1" d="M25.37,24.65a.91.91,0,0,1,0-.17,1.86,1.86,0,0,1,.05-.42h0c0-.41.06-.83.06-1.25a12.59,12.59,0,0,0-.21-2.32A12.75,12.75,0,1,0,12.34,35.52,7.87,7.87,0,0,1,8.11,21.29a4.87,4.87,0,0,1,9.26,0,7.85,7.85,0,0,1,3.25,6.37,7.87,7.87,0,0,0,7.761,7.87V27.66a3,3,0,0,1-3.01-3.01Z" fill="#fff"/>
    <path id="Path_2" data-name="Path 2" d="M20.62,27.66a7.87,7.87,0,0,1-7.47,7.86h-.81A7.87,7.87,0,0,1,8.11,21.29a4.87,4.87,0,1,0,9.5,1.5,4.62,4.62,0,0,0-.24-1.5A7.85,7.85,0,0,1,20.62,27.66Z" fill="#fff"/>
    <path id="Path_3" data-name="Path 3" d="M30.14,35.33V10h7.71v4H38c1.72-2.9,4-4.34,6.92-4.34a3.63,3.63,0,0,1,1.58.38v6.73h-.2c-2.51-.36-4.48.07-5.93,1.31s-2.18,3.2-2.18,5.9V35.33Z" fill="#fff"/>
    <path id="Path_4" data-name="Path 4" d="M59.75,35.63a9.82,9.82,0,0,1-6-1.56q-2.1-1.56-2.1-5.41V15.07H48.34V10H51.7V2h7.86v8h4.59v5H59.56V26.93a2.29,2.29,0,0,0,.71,1.93,3.46,3.46,0,0,0,2.1.54h1.74v5.88a17.67,17.67,0,0,1-4.36.35Z" fill="#fff"/>
    <path id="Path_5" data-name="Path 5" d="M66,6.52V0h8.06V6.52Zm0,28.81V10h8.06V35.3Z" fill="#fff"/>
    <path id="Path_6" data-name="Path 6" d="M84.76,35.33,76,10h8.3l3.46,11.41,1.38,5.09h.1q.65-2.57,1.39-5.09L94.14,10h8.06L93.45,35.3Z" fill="#fff"/>
    <path id="Path_7" data-name="Path 7" d="M117.56,36.07a13,13,0,0,1-9.8-3.78,13.25,13.25,0,0,1-3.68-9.66,13.28,13.28,0,0,1,3.63-9.54,13.42,13.42,0,0,1,18-.64q4.54,4.16,4.44,12.3H112a7.1,7.1,0,0,0,1.83,4.08,5.16,5.16,0,0,0,3.85,1.46,4.13,4.13,0,0,0,4.2-2.52h7.86a10,10,0,0,1-4.25,6,13.41,13.41,0,0,1-7.93,2.3ZM112,20h10a5.59,5.59,0,0,0-1.51-3.6,4.39,4.39,0,0,0-3.27-1.4Q112.92,15,112,20Z" fill="#fff"/>
  </g>
</svg>
