<svg xmlns="http://www.w3.org/2000/svg" width="358.929" height="2289.216" viewBox="0 0 358.929 2289.216">
  <g id="Warstwa_2" data-name="Warstwa 2" transform="translate(358.979) rotate(90)">
    <g id="Warstwa_1" data-name="Warstwa 1" transform="translate(0 0.05)">
      <path id="Path_10" data-name="Path 10" d="M234.475,169.038a77.888,77.888,0,0,1,39.32,31.834,90.633,90.633,0,0,1,15.572,51.1q0,45.933-32.346,70.854T164.914,347.78H0V2.14H164.914q52.847,0,83.209,24.049t30.361,67.156a88.139,88.139,0,0,1-11.6,45.452,76.174,76.174,0,0,1-32.406,30.241ZM166.9,53.484H57.266v91.355H166.9q25.672,0,40.252-12.024c9.71-7.876,14.549-19.089,14.549-33.548S216.859,73.9,207.15,65.689,184,53.484,166.9,53.484Zm4.449,241.96q28.137,0,44.43-13.587t16.293-37.276q0-23.237-16.053-36.554t-44.19-13.317H57.266V295.444Z" transform="translate(0 4.143)"/>
      <path id="Path_11" data-name="Path 11" d="M238.1,34.33q38.027,0,61.715,21.223l-24.68,45.091a72.146,72.146,0,0,0-40.973-13.317q-29.64,0-47.165,20.742t-17.526,56.274V283.354H114.16v-244h49.39l.481,37.546Q191.687,34.33,238.1,34.33Z" transform="translate(229.015 68.719)"/>
      <path id="Path_12" data-name="Path 12" d="M219.556,69.4a34.54,34.54,0,0,1-25.191-9.65,32.015,32.015,0,0,1-9.89-24.049,33.368,33.368,0,0,1,9.89-24.951,34.63,34.63,0,0,1,25.191-9.619,36.073,36.073,0,0,1,25.913,9.619A33.067,33.067,0,0,1,255.6,35.7a31.684,31.684,0,0,1-10.13,24.049,36.073,36.073,0,0,1-25.913,9.65ZM191.9,349.864V106.01h55.282V349.954Z" transform="translate(370.028 2.059)"/>
      <path id="Path_13" data-name="Path 13" d="M349.076,34.33q64.21,0,97.788,39.5T474.49,182.049H279.455A61.114,61.114,0,0,0,303.5,224.525q20.742,15.842,52.847,15.812a117.6,117.6,0,0,0,39.981-6.914,76.655,76.655,0,0,0,30.061-18.277l33.578,32.586A126.976,126.976,0,0,1,413.8,278.845a154.965,154.965,0,0,1-59.01,11.363q-60.122,0-96.195-35.051t-36.073-93.82q0-56.815,34.811-91.866T349.076,34.33Zm1.473,47.887q-28.648,0-46.9,14.82t-23.688,42.085H421.673A59.611,59.611,0,0,0,399.7,97.668q-19.028-15.451-49.15-15.451Z" transform="translate(446.395 68.719)"/>
      <path id="Path_14" data-name="Path 14" d="M456.113,47.306a36.283,36.283,0,0,0-28.167,11.363q-10.461,11.363-10.461,34.57v14.88L1654.57,93.239v45.451L417.485,155.435V351.973H362.173V155.435H316.36V108.119h45.933V93.239q0-45.091,25.191-69.14T451.664.05A105.483,105.483,0,0,1,513.89,20.792L492.637,59.871Q472.887,47.306,456.113,47.306Z" transform="translate(634.646 -0.05)"/>
    </g>
  </g>
</svg>
